<svg preserveAspectRatio="none" overflow="visible" style="display: block;" width="24" height="24" viewBox="0 0 24 24" fill="none" xmlns="http://www.w3.org/2000/svg">
<g id="fi-br-bell-ring" clip-path="url(#clip0_0_315)">
<path id="Vector" d="M0.220958 4.28302C0.118355 4.11481 0.0498979 3.92803 0.0194972 3.73335C-0.0109036 3.53868 -0.00265224 3.33992 0.0437797 3.14844C0.0902117 2.95695 0.173915 2.77649 0.290107 2.61736C0.406299 2.45823 0.552704 2.32355 0.720958 2.22102L3.98896 0.221019C4.15701 0.109114 4.34593 0.0322872 4.54439 -0.00485644C4.74284 -0.0420001 4.94676 -0.0386962 5.14391 0.00485719C5.34106 0.0484106 5.52739 0.131317 5.69173 0.248608C5.85607 0.365899 5.99504 0.515161 6.10031 0.687448C6.20558 0.859735 6.27499 1.0515 6.30437 1.25126C6.33375 1.45101 6.3225 1.65464 6.2713 1.84994C6.2201 2.04525 6.12999 2.2282 6.00639 2.38785C5.88278 2.54749 5.72822 2.68054 5.55196 2.77902L2.28296 4.77902C2.11475 4.88162 1.92797 4.95008 1.73329 4.98048C1.53862 5.01088 1.33986 5.00263 1.14837 4.9562C0.956889 4.90976 0.776427 4.82606 0.617298 4.70987C0.45817 4.59368 0.323491 4.44727 0.220958 4.27902V4.28302ZM23.288 17.983C22.9494 17.7742 22.5418 17.7084 22.1547 17.8001C21.7676 17.8918 21.4328 18.1335 21.224 18.472L19.224 21.713C19.1158 21.8806 19.0422 22.0681 19.0074 22.2646C18.9726 22.461 18.9773 22.6624 19.0213 22.8569C19.0653 23.0515 19.1476 23.2354 19.2635 23.3977C19.3794 23.5601 19.5265 23.6977 19.6962 23.8025C19.8659 23.9073 20.0549 23.9772 20.2519 24.0081C20.449 24.0391 20.6503 24.0303 20.8439 23.9825C21.0376 23.9347 21.2198 23.8487 21.3798 23.7297C21.5398 23.6106 21.6745 23.4608 21.776 23.289L23.776 20.048C23.8797 19.8804 23.9494 19.6939 23.981 19.4993C24.0127 19.3047 24.0056 19.1057 23.9603 18.9138C23.915 18.722 23.8322 18.5409 23.7169 18.381C23.6015 18.2211 23.4558 18.0855 23.288 17.982V17.983ZM20.835 15.483L17.235 21.348C16.7972 22.0652 16.2016 22.6731 15.4936 23.1255C14.7856 23.578 13.9837 23.863 13.149 23.959C12.9289 23.9844 12.7075 23.9975 12.486 23.998C11.2568 23.9931 10.0647 23.5766 9.09996 22.815C8.31519 23.5759 7.26378 23.9993 6.17073 23.9948C5.07769 23.9902 4.02985 23.558 3.25148 22.7906C2.4731 22.0232 2.02603 20.9816 2.00593 19.8887C1.98584 18.7958 2.39432 17.7385 3.14396 16.943L1.64996 15.443C1.05202 14.85 0.597141 14.1285 0.319893 13.3333C0.0426463 12.5382 -0.0496713 11.6902 0.0499577 10.854C0.144756 10.0261 0.427012 9.23072 0.875279 8.52826C1.32355 7.82579 1.92603 7.23474 2.63696 6.80002L8.12396 3.41302C9.63749 2.44456 11.4067 1.95232 13.2029 1.99992C14.9992 2.04751 16.7398 2.63276 18.2 3.68002L19.44 2.43902C19.7214 2.15762 20.103 1.99954 20.501 1.99954C20.8989 1.99954 21.2806 2.15762 21.562 2.43902C21.8434 2.72041 22.0014 3.10207 22.0014 3.50002C22.0014 3.89797 21.8434 4.27962 21.562 4.56102L20.323 5.80002C21.3182 7.19972 21.8948 8.85362 21.9854 10.5687C22.0761 12.2837 21.6771 13.9892 20.835 15.486V15.483ZM17.235 6.77602C16.2647 5.79981 14.9891 5.18565 13.6209 5.03589C12.2527 4.88613 10.8745 5.20982 9.71596 5.95302L4.21596 9.35302C3.89151 9.55204 3.61664 9.82233 3.41219 10.1434C3.20773 10.4644 3.07907 10.8278 3.03596 11.206C2.99027 11.5926 3.03335 11.9844 3.16193 12.3518C3.29051 12.7191 3.5012 13.0523 3.77796 13.326L10.69 20.254C10.9639 20.5268 11.296 20.734 11.6614 20.8602C12.0268 20.9864 12.416 21.0283 12.7999 20.9828C13.1837 20.9373 13.5524 20.8056 13.8781 20.5975C14.2039 20.3894 14.4783 20.1102 14.681 19.781L18.254 13.963C18.8878 12.8175 19.1313 11.4968 18.9476 10.2006C18.764 8.9044 18.1631 7.70329 17.236 6.77902L17.235 6.77602Z" fill="white"/>
</g>
<defs>
<clipPath id="clip0_0_315">
<rect width="24" height="24" fill="white"/>
</clipPath>
</defs>
</svg>
